<svg xmlns="http://www.w3.org/2000/svg" width="128" height="128" viewBox="0 0 128 128">
<!-- generated by tools/runner-rig.js; edit the pose there, not here -->
<g fill="none" stroke-linecap="round" stroke-linejoin="round">
<path d="M58 44 C 44 36, 40 54, 24 44 S 8 38, 6 46" stroke="#7df9ff" stroke-width="18" opacity="0.28"/>
<path d="M58 44 C 44 36, 40 54, 24 44 S 8 38, 6 46" stroke="#1b1b2f" stroke-width="13"/>
<path d="M58 44 C 44 36, 40 54, 24 44 S 8 38, 6 46" stroke="#7df9ff" stroke-width="7"/>
<polyline points="66,51 82,64 94,52" stroke="#1b1b2f" stroke-width="22"/><polyline points="66,51 82,64 94,52" stroke="#474a5b" stroke-width="12"/>
<circle cx="94" cy="52" r="7" fill="#1b1b2f"/>
<polyline points="58,78 40,94 28,106" stroke="#1b1b2f" stroke-width="22"/><polyline points="58,78 40,94 28,106" stroke="#474a5b" stroke-width="12"/>
<line x1="25" y1="106" x2="37" y2="106" stroke="#1b1b2f" stroke-width="14"/><line x1="27" y1="105" x2="35" y2="105" stroke="#474a5b" stroke-width="4"/>
<polyline points="68,48 60,78" stroke="#1b1b2f" stroke-width="36"/><polyline points="68,48 60,78" stroke="#5b5f73" stroke-width="26"/>
<polyline points="63,78 82,93 94,112" stroke="#1b1b2f" stroke-width="22"/><polyline points="63,78 82,93 94,112" stroke="#5b5f73" stroke-width="12"/>
<line x1="91" y1="112" x2="103" y2="112" stroke="#1b1b2f" stroke-width="14"/><line x1="93" y1="111" x2="101" y2="111" stroke="#5b5f73" stroke-width="4"/>
<polyline points="69,51 50,62 46,46" stroke="#1b1b2f" stroke-width="22"/><polyline points="69,51 50,62 46,46" stroke="#5b5f73" stroke-width="12"/>
<circle cx="46" cy="46" r="7" fill="#1b1b2f"/>
<circle cx="60" cy="44" r="6" fill="#7df9ff" stroke="#1b1b2f" stroke-width="3"/>
<circle cx="74" cy="26" r="18" fill="#9aa0b8" stroke="#1b1b2f" stroke-width="5"/>
<path d="M76 8 A 18 18 0 0 0 76 44 Z" fill="#5b5f73"/>
<rect x="69" y="17" width="26" height="16" rx="8" fill="#7df9ff" opacity="0.3"/>
<rect x="72" y="20" width="20" height="9" rx="4.5" fill="#7df9ff" stroke="#1b1b2f" stroke-width="2.5"/>
<rect x="80" y="22" width="6" height="3" rx="1.5" fill="#f2f2f2"/>
</g>
</svg>
