<svg xmlns="http://www.w3.org/2000/svg" width="128" height="128" viewBox="0 0 128 128">
<!-- generated by tools/runner-rig.js; edit the pose there, not here -->
<g fill="none" stroke-linecap="round" stroke-linejoin="round">
<path d="M58 44 C 44 50, 46 66, 36 78" stroke="#7df9ff" stroke-width="18" opacity="0.28"/>
<path d="M58 44 C 44 50, 46 66, 36 78" stroke="#1b1b2f" stroke-width="13"/>
<path d="M58 44 C 44 50, 46 66, 36 78" stroke="#7df9ff" stroke-width="7"/>
<polyline points="60,53 53,70 50,88" stroke="#1b1b2f" stroke-width="22"/><polyline points="60,53 53,70 50,88" stroke="#474a5b" stroke-width="12"/>
<circle cx="50" cy="88" r="7" fill="#1b1b2f"/>
<polyline points="59,80 55,98 53,113" stroke="#1b1b2f" stroke-width="22"/><polyline points="59,80 55,98 53,113" stroke="#474a5b" stroke-width="12"/>
<line x1="50" y1="113" x2="62" y2="113" stroke="#1b1b2f" stroke-width="14"/><line x1="52" y1="112" x2="60" y2="112" stroke="#474a5b" stroke-width="4"/>
<polyline points="64,50 62,80" stroke="#1b1b2f" stroke-width="36"/><polyline points="64,50 62,80" stroke="#5b5f73" stroke-width="26"/>
<circle cx="67" cy="48" r="6" fill="#7df9ff" stroke="#1b1b2f" stroke-width="3"/>
<polyline points="65,80 69,98 71,113" stroke="#1b1b2f" stroke-width="22"/><polyline points="65,80 69,98 71,113" stroke="#5b5f73" stroke-width="12"/>
<line x1="68" y1="113" x2="80" y2="113" stroke="#1b1b2f" stroke-width="14"/><line x1="70" y1="112" x2="78" y2="112" stroke="#5b5f73" stroke-width="4"/>
<polyline points="67,53 73,70 76,88" stroke="#1b1b2f" stroke-width="22"/><polyline points="67,53 73,70 76,88" stroke="#5b5f73" stroke-width="12"/>
<circle cx="76" cy="88" r="7" fill="#1b1b2f"/>
<circle cx="66" cy="28" r="18" fill="#9aa0b8" stroke="#1b1b2f" stroke-width="5"/>
<path d="M68 10 A 18 18 0 0 0 68 46 Z" fill="#5b5f73"/>
<rect x="61" y="19" width="26" height="16" rx="8" fill="#7df9ff" opacity="0.3"/>
<rect x="64" y="22" width="20" height="9" rx="4.5" fill="#7df9ff" stroke="#1b1b2f" stroke-width="2.5"/>
<rect x="72" y="24" width="6" height="3" rx="1.5" fill="#f2f2f2"/>
</g>
</svg>
